<mxfile host="Electron" modified="2024-03-15T14:37:07.988Z" agent="Mozilla/5.0 (Macintosh; Intel Mac OS X 10_15_7) AppleWebKit/537.36 (KHTML, like Gecko) draw.io/23.0.2 Chrome/120.0.6099.109 Electron/28.1.0 Safari/537.36" etag="q0orhbDK1L8JdrpiExaj" version="23.0.2" type="device">
  <diagram name="Page-1" id="WYB66Dv_T5oNxg7J8qw1">
    <mxGraphModel dx="1643" dy="1191" grid="1" gridSize="10" guides="1" tooltips="1" connect="1" arrows="1" fold="1" page="1" pageScale="1" pageWidth="850" pageHeight="1100" math="0" shadow="0">
      <root>
        <mxCell id="0" />
        <mxCell id="1" parent="0" />
        <mxCell id="cxAtfRaasT6_QiwZEYkY-33" value="" style="rounded=1;whiteSpace=wrap;html=1;fontSize=14;fontFamily=Computer Modern;" parent="1" vertex="1">
          <mxGeometry x="230" y="190" width="90" height="40" as="geometry" />
        </mxCell>
        <mxCell id="cxAtfRaasT6_QiwZEYkY-1" value="" style="rounded=1;whiteSpace=wrap;html=1;arcSize=7;fontFamily=Computer Modern;fontSize=14;" parent="1" vertex="1">
          <mxGeometry x="140" y="270" width="140" height="220" as="geometry" />
        </mxCell>
        <mxCell id="cxAtfRaasT6_QiwZEYkY-2" value="LLVM" style="text;html=1;align=left;verticalAlign=middle;resizable=0;points=[];autosize=1;strokeColor=none;fillColor=none;fontStyle=1;fontFamily=Computer Modern;fontSize=14;" parent="1" vertex="1">
          <mxGeometry x="150" y="270" width="60" height="30" as="geometry" />
        </mxCell>
        <mxCell id="cxAtfRaasT6_QiwZEYkY-16" style="edgeStyle=orthogonalEdgeStyle;rounded=0;orthogonalLoop=1;jettySize=auto;html=1;entryX=0.5;entryY=0;entryDx=0;entryDy=0;fontSize=14;fontFamily=Computer Modern;" parent="1" source="cxAtfRaasT6_QiwZEYkY-3" target="cxAtfRaasT6_QiwZEYkY-7" edge="1">
          <mxGeometry relative="1" as="geometry">
            <Array as="points">
              <mxPoint x="150" y="250" />
              <mxPoint x="210" y="250" />
            </Array>
          </mxGeometry>
        </mxCell>
        <mxCell id="cxAtfRaasT6_QiwZEYkY-3" value="C/C++ source code" style="rounded=0;whiteSpace=wrap;html=1;fontFamily=Computer Modern;fontSize=14;" parent="1" vertex="1">
          <mxGeometry x="110" y="190" width="100" height="40" as="geometry" />
        </mxCell>
        <mxCell id="cxAtfRaasT6_QiwZEYkY-17" style="edgeStyle=orthogonalEdgeStyle;rounded=0;orthogonalLoop=1;jettySize=auto;html=1;entryX=0.5;entryY=0;entryDx=0;entryDy=0;fontSize=14;fontFamily=Computer Modern;" parent="1" source="cxAtfRaasT6_QiwZEYkY-4" target="cxAtfRaasT6_QiwZEYkY-7" edge="1">
          <mxGeometry relative="1" as="geometry">
            <mxPoint x="400" y="290" as="targetPoint" />
            <Array as="points">
              <mxPoint x="275" y="250" />
              <mxPoint x="210" y="250" />
            </Array>
          </mxGeometry>
        </mxCell>
        <mxCell id="cxAtfRaasT6_QiwZEYkY-4" value="Intrinsics" style="rounded=0;whiteSpace=wrap;html=1;fontFamily=Computer Modern;strokeColor=none;fillColor=none;fontSize=14;" parent="1" vertex="1">
          <mxGeometry x="230" y="210" width="90" height="20" as="geometry" />
        </mxCell>
        <mxCell id="cxAtfRaasT6_QiwZEYkY-13" style="edgeStyle=orthogonalEdgeStyle;rounded=0;orthogonalLoop=1;jettySize=auto;html=1;entryX=0.5;entryY=0;entryDx=0;entryDy=0;fontSize=14;fontFamily=Computer Modern;" parent="1" source="cxAtfRaasT6_QiwZEYkY-7" target="cxAtfRaasT6_QiwZEYkY-10" edge="1">
          <mxGeometry relative="1" as="geometry" />
        </mxCell>
        <mxCell id="cxAtfRaasT6_QiwZEYkY-7" value="Clang" style="rounded=1;whiteSpace=wrap;html=1;fontFamily=Computer Modern;fontSize=14;" parent="1" vertex="1">
          <mxGeometry x="150" y="300" width="120" height="30" as="geometry" />
        </mxCell>
        <mxCell id="cxAtfRaasT6_QiwZEYkY-14" style="edgeStyle=orthogonalEdgeStyle;rounded=0;orthogonalLoop=1;jettySize=auto;html=1;entryX=0.5;entryY=0;entryDx=0;entryDy=0;fontSize=14;fontFamily=Computer Modern;" parent="1" source="cxAtfRaasT6_QiwZEYkY-10" target="cxAtfRaasT6_QiwZEYkY-11" edge="1">
          <mxGeometry relative="1" as="geometry" />
        </mxCell>
        <mxCell id="cxAtfRaasT6_QiwZEYkY-10" value="Optimizations" style="rounded=1;whiteSpace=wrap;html=1;fontFamily=Computer Modern;fontSize=14;" parent="1" vertex="1">
          <mxGeometry x="150" y="350" width="120" height="30" as="geometry" />
        </mxCell>
        <mxCell id="cxAtfRaasT6_QiwZEYkY-15" style="edgeStyle=orthogonalEdgeStyle;rounded=0;orthogonalLoop=1;jettySize=auto;html=1;entryX=0.5;entryY=0;entryDx=0;entryDy=0;fontSize=14;fontFamily=Computer Modern;" parent="1" source="cxAtfRaasT6_QiwZEYkY-11" target="cxAtfRaasT6_QiwZEYkY-12" edge="1">
          <mxGeometry relative="1" as="geometry" />
        </mxCell>
        <mxCell id="cxAtfRaasT6_QiwZEYkY-11" value="Stack sanitizer" style="rounded=1;whiteSpace=wrap;html=1;fontStyle=0;fontFamily=Computer Modern;fontSize=14;" parent="1" vertex="1">
          <mxGeometry x="150" y="400" width="120" height="30" as="geometry" />
        </mxCell>
        <mxCell id="cxAtfRaasT6_QiwZEYkY-22" style="edgeStyle=orthogonalEdgeStyle;rounded=0;orthogonalLoop=1;jettySize=auto;html=1;fontSize=14;fontFamily=Computer Modern;" parent="1" source="cxAtfRaasT6_QiwZEYkY-12" target="cxAtfRaasT6_QiwZEYkY-19" edge="1">
          <mxGeometry relative="1" as="geometry">
            <Array as="points">
              <mxPoint x="210" y="510" />
              <mxPoint x="300" y="510" />
              <mxPoint x="300" y="360" />
            </Array>
          </mxGeometry>
        </mxCell>
        <mxCell id="cxAtfRaasT6_QiwZEYkY-12" value="Codegen" style="rounded=1;whiteSpace=wrap;html=1;fontStyle=0;fontFamily=Computer Modern;fontSize=14;" parent="1" vertex="1">
          <mxGeometry x="150" y="450" width="120" height="30" as="geometry" />
        </mxCell>
        <mxCell id="UlODbdXHelF-bM2IOqHd-7" style="edgeStyle=orthogonalEdgeStyle;rounded=0;orthogonalLoop=1;jettySize=auto;html=1;" edge="1" parent="1" source="cxAtfRaasT6_QiwZEYkY-19" target="UlODbdXHelF-bM2IOqHd-3">
          <mxGeometry relative="1" as="geometry">
            <Array as="points">
              <mxPoint x="440" y="360" />
              <mxPoint x="440" y="305" />
            </Array>
          </mxGeometry>
        </mxCell>
        <mxCell id="UlODbdXHelF-bM2IOqHd-8" style="edgeStyle=orthogonalEdgeStyle;rounded=0;orthogonalLoop=1;jettySize=auto;html=1;" edge="1" parent="1" source="cxAtfRaasT6_QiwZEYkY-19" target="UlODbdXHelF-bM2IOqHd-4">
          <mxGeometry relative="1" as="geometry" />
        </mxCell>
        <mxCell id="UlODbdXHelF-bM2IOqHd-9" style="edgeStyle=orthogonalEdgeStyle;rounded=0;orthogonalLoop=1;jettySize=auto;html=1;" edge="1" parent="1" source="cxAtfRaasT6_QiwZEYkY-19" target="UlODbdXHelF-bM2IOqHd-5">
          <mxGeometry relative="1" as="geometry">
            <Array as="points">
              <mxPoint x="440" y="360" />
              <mxPoint x="440" y="415" />
            </Array>
          </mxGeometry>
        </mxCell>
        <mxCell id="cxAtfRaasT6_QiwZEYkY-19" value="WASM binary" style="rounded=0;whiteSpace=wrap;html=1;fontFamily=Computer Modern;fontSize=14;" parent="1" vertex="1">
          <mxGeometry x="320" y="340" width="100" height="40" as="geometry" />
        </mxCell>
        <mxCell id="cxAtfRaasT6_QiwZEYkY-21" value="WASI-libc" style="rounded=0;whiteSpace=wrap;html=1;fontFamily=Computer Modern;strokeColor=none;fillColor=none;fontSize=14;" parent="1" vertex="1">
          <mxGeometry x="230" y="190" width="90" height="20" as="geometry" />
        </mxCell>
        <mxCell id="cxAtfRaasT6_QiwZEYkY-34" value="" style="endArrow=none;dashed=1;html=1;rounded=0;exitX=0;exitY=0;exitDx=0;exitDy=0;entryX=1;entryY=1;entryDx=0;entryDy=0;fontSize=14;fontFamily=Computer Modern;" parent="1" source="cxAtfRaasT6_QiwZEYkY-4" target="cxAtfRaasT6_QiwZEYkY-21" edge="1">
          <mxGeometry width="50" height="50" relative="1" as="geometry">
            <mxPoint x="350" y="410" as="sourcePoint" />
            <mxPoint x="400" y="360" as="targetPoint" />
          </mxGeometry>
        </mxCell>
        <mxCell id="UlODbdXHelF-bM2IOqHd-3" value="WASM runtime 1" style="rounded=1;whiteSpace=wrap;html=1;fontFamily=Computer Modern;fontSize=14;" vertex="1" parent="1">
          <mxGeometry x="470" y="290" width="120" height="30" as="geometry" />
        </mxCell>
        <mxCell id="UlODbdXHelF-bM2IOqHd-4" value="WASM runtime 2" style="rounded=1;whiteSpace=wrap;html=1;fontFamily=Computer Modern;fontSize=14;" vertex="1" parent="1">
          <mxGeometry x="470" y="345" width="120" height="30" as="geometry" />
        </mxCell>
        <mxCell id="UlODbdXHelF-bM2IOqHd-5" value="WASM runtime 2" style="rounded=1;whiteSpace=wrap;html=1;fontFamily=Computer Modern;fontSize=14;" vertex="1" parent="1">
          <mxGeometry x="470" y="400" width="120" height="30" as="geometry" />
        </mxCell>
        <mxCell id="UlODbdXHelF-bM2IOqHd-11" value="" style="endArrow=none;dashed=1;html=1;rounded=0;fontSize=14;fontFamily=Computer Modern;" edge="1" parent="1">
          <mxGeometry width="50" height="50" relative="1" as="geometry">
            <mxPoint x="430" y="510" as="sourcePoint" />
            <mxPoint x="430" y="190" as="targetPoint" />
          </mxGeometry>
        </mxCell>
        <mxCell id="UlODbdXHelF-bM2IOqHd-12" value="Build" style="text;html=1;align=right;verticalAlign=middle;resizable=0;points=[];autosize=1;strokeColor=none;fillColor=none;fontStyle=1;fontFamily=Computer Modern;fontSize=14;spacing=2;spacingLeft=10;spacingRight=10;" vertex="1" parent="1">
          <mxGeometry x="360" y="190" width="70" height="30" as="geometry" />
        </mxCell>
        <mxCell id="UlODbdXHelF-bM2IOqHd-13" value="Execution" style="text;html=1;align=left;verticalAlign=middle;resizable=0;points=[];autosize=1;strokeColor=none;fillColor=none;fontStyle=1;fontFamily=Computer Modern;fontSize=14;spacing=2;spacingLeft=10;spacingRight=10;" vertex="1" parent="1">
          <mxGeometry x="430" y="190" width="100" height="30" as="geometry" />
        </mxCell>
      </root>
    </mxGraphModel>
  </diagram>
</mxfile>
